<svg width="140" height="140" viewBox="0 0 140 140" fill="none" xmlns="http://www.w3.org/2000/svg">
<path d="M70.1116 0C76.5032 7.42053 83.5528 14.3117 91.1764 20.5937C86.0967 36.2108 83.362 52.8026 83.362 70C83.362 87.1973 86.0967 103.789 91.1764 119.407C83.5528 125.688 76.5032 132.579 70.1116 140C63.72 132.579 56.6702 125.688 49.0469 119.407C54.1265 103.789 56.8611 87.1973 56.8611 70C56.8611 52.8027 54.1265 36.2108 49.0469 20.5937C56.6702 14.3117 63.72 7.42053 70.1116 0Z" fill="#F58220"/>
<path d="M34.3641 108.609C26.2946 103.248 17.7307 98.5097 8.75 94.469C11.2412 86.7287 12.5813 78.5125 12.5813 69.9999C12.5813 61.4873 11.2412 53.2711 8.75 45.531C17.7307 41.49 26.2946 36.7521 34.3641 31.3909C37.4496 43.7855 39.0823 56.712 39.0823 69.9999C39.0823 83.2876 37.4496 96.2143 34.3641 108.609Z" fill="#FCB94D"/>
<path d="M100.918 70C100.918 83.2877 102.55 96.2144 105.636 108.609C113.705 103.248 122.269 98.5098 131.25 94.469C128.758 86.7288 127.419 78.5125 127.419 70C127.419 61.4874 128.758 53.2712 131.25 45.531C122.269 41.4901 113.705 36.7521 105.636 31.3909C102.55 43.7855 100.918 56.712 100.918 70Z" fill="#FCB94D"/>
</svg>
